<svg width="106" height="37" viewBox="0 0 106 37" fill="none" xmlns="http://www.w3.org/2000/svg">
<g clip-path="url(#clip0_39_174)">
<path d="M0 28.5049V8.49333H12.5234C17.0542 8.49333 19.3735 10.9242 19.3735 13.5909C19.3679 14.7145 18.9498 15.7981 18.1963 16.6422C17.4428 17.4863 16.4046 18.034 15.2732 18.1842C16.5067 18.3177 17.6493 18.8869 18.489 19.7861C19.3287 20.6853 19.8086 21.8537 19.8397 23.0745C19.8397 26.1048 17.4853 28.5049 12.9181 28.5049H0ZM14.2004 14.3436C14.2004 13.1133 13.13 12.2436 11.4173 12.2436H5.06663V16.4436H11.4173C13.13 16.4442 14.2004 15.6339 14.2004 14.3436ZM14.6641 22.4739C14.6641 21.2139 13.5937 20.1939 11.6316 20.1939H5.06663V24.7545H11.6316C13.5223 24.7545 14.6641 23.9145 14.6641 22.4745V22.4739ZM26.297 28.5049V8.49333H31.3987V24.7545H41.4568V28.5049H26.297ZM47.7385 28.5049V12.2436L52.8014 8.49333V28.5049H47.7354H47.7385ZM89.7607 24.7545L101 11.9139V8.49333H58.9015V12.2436H65.8606V28.5049H70.9624V12.2436H94.3648L83.1249 25.0545V28.5049H101V24.7545H89.7607Z" fill="white"/>
</g>
<defs>
<clipPath id="clip0_39_174">
<rect width="101" height="20" fill="white" transform="translate(0 8.5)"/>
</clipPath>
</defs>
</svg>
